<mxfile host="app.diagrams.net" modified="2023-05-14T16:31:10.892Z" agent="Mozilla/5.0 (Macintosh; Intel Mac OS X 10_15_7) AppleWebKit/537.36 (KHTML, like Gecko) Chrome/112.0.0.0 Safari/537.36" etag="VjGrL81sgtBx5hTt1mNb" version="21.2.9" type="github">
  <diagram name="Page-1" id="iBfRw5HTF6hHkQwbkQXA">
    <mxGraphModel dx="1702" dy="698" grid="0" gridSize="10" guides="1" tooltips="1" connect="1" arrows="1" fold="1" page="0" pageScale="1" pageWidth="850" pageHeight="1100" math="0" shadow="0">
      <root>
        <mxCell id="0" />
        <mxCell id="1" parent="0" />
        <mxCell id="hxzqd37WvZ4zt7qAIJqa-9" value="" style="verticalLabelPosition=bottom;verticalAlign=top;html=1;shape=mxgraph.basic.rect;fillColor2=none;strokeWidth=1;size=20;indent=5;fontColor=#A9C4EB;labelBackgroundColor=default;dashed=1;strokeColor=#000000;whiteSpace=wrap;" vertex="1" parent="1">
          <mxGeometry x="204" y="81" width="572" height="506" as="geometry" />
        </mxCell>
        <mxCell id="hxzqd37WvZ4zt7qAIJqa-56" value="Azure VPC" style="rounded=0;whiteSpace=wrap;html=1;fillColor=none;strokeColor=#7EA6E0;labelPosition=center;verticalLabelPosition=bottom;align=center;verticalAlign=top;" vertex="1" parent="1">
          <mxGeometry x="311" y="102" width="442.15" height="304" as="geometry" />
        </mxCell>
        <mxCell id="hxzqd37WvZ4zt7qAIJqa-68" value="" style="rounded=0;whiteSpace=wrap;html=1;fillColor=none;strokeColor=#000000;labelPosition=center;verticalLabelPosition=top;align=center;verticalAlign=bottom;" vertex="1" parent="1">
          <mxGeometry x="-151" y="93" width="146" height="434" as="geometry" />
        </mxCell>
        <mxCell id="hxzqd37WvZ4zt7qAIJqa-54" value="" style="rounded=0;whiteSpace=wrap;html=1;labelBackgroundColor=#D4E1F5;fontColor=#A9C4EB;strokeColor=#D4E1F5;fillColor=#D4E1F5;" vertex="1" parent="1">
          <mxGeometry x="544.35" y="113" width="120" height="257" as="geometry" />
        </mxCell>
        <mxCell id="hxzqd37WvZ4zt7qAIJqa-14" value="Azure Cloud&amp;nbsp;" style="verticalLabelPosition=bottom;html=1;verticalAlign=top;align=center;strokeColor=none;fillColor=#00BEF2;shape=mxgraph.azure.cloud;" vertex="1" parent="1">
          <mxGeometry x="222" y="45" width="50" height="32.5" as="geometry" />
        </mxCell>
        <mxCell id="hxzqd37WvZ4zt7qAIJqa-19" value="&lt;font style=&quot;font-size: 15px;&quot;&gt;SQL Data Stores&lt;/font&gt;" style="text;strokeColor=none;fillColor=none;html=1;fontSize=18;fontStyle=0;verticalAlign=middle;align=center;strokeWidth=0;" vertex="1" parent="1">
          <mxGeometry x="576.85" y="552" width="55" height="29" as="geometry" />
        </mxCell>
        <mxCell id="hxzqd37WvZ4zt7qAIJqa-24" value="" style="rounded=0;whiteSpace=wrap;html=1;" vertex="1" parent="1">
          <mxGeometry x="25" y="93" width="110" height="434" as="geometry" />
        </mxCell>
        <mxCell id="hxzqd37WvZ4zt7qAIJqa-25" value="Azure Active&lt;br&gt;&amp;nbsp;Directory&amp;nbsp;" style="image;aspect=fixed;html=1;points=[];align=center;fontSize=12;image=img/lib/azure2/identity/Azure_Active_Directory.svg;" vertex="1" parent="1">
          <mxGeometry x="45" y="104" width="68.91" height="63" as="geometry" />
        </mxCell>
        <mxCell id="hxzqd37WvZ4zt7qAIJqa-29" style="edgeStyle=orthogonalEdgeStyle;rounded=0;orthogonalLoop=1;jettySize=auto;html=1;" edge="1" parent="1">
          <mxGeometry relative="1" as="geometry">
            <mxPoint x="136" y="296" as="sourcePoint" />
            <mxPoint x="203" y="296" as="targetPoint" />
          </mxGeometry>
        </mxCell>
        <mxCell id="hxzqd37WvZ4zt7qAIJqa-26" value="Browser" style="image;aspect=fixed;html=1;points=[];align=center;fontSize=12;image=img/lib/azure2/app_services/App_Service_Domains.svg;" vertex="1" parent="1">
          <mxGeometry x="51.95" y="275" width="55" height="44" as="geometry" />
        </mxCell>
        <mxCell id="hxzqd37WvZ4zt7qAIJqa-27" value="Azure DNS" style="image;aspect=fixed;html=1;points=[];align=center;fontSize=12;image=img/lib/azure2/networking/DNS_Zones.svg;" vertex="1" parent="1">
          <mxGeometry x="45" y="421" width="64" height="64" as="geometry" />
        </mxCell>
        <mxCell id="hxzqd37WvZ4zt7qAIJqa-30" value="" style="endArrow=classic;startArrow=classic;html=1;rounded=0;" edge="1" parent="1">
          <mxGeometry width="50" height="50" relative="1" as="geometry">
            <mxPoint x="138" y="605" as="sourcePoint" />
            <mxPoint x="439" y="607" as="targetPoint" />
            <Array as="points">
              <mxPoint x="180" y="605" />
            </Array>
          </mxGeometry>
        </mxCell>
        <mxCell id="hxzqd37WvZ4zt7qAIJqa-33" value="Front End Services" style="edgeLabel;html=1;align=center;verticalAlign=middle;resizable=0;points=[];" vertex="1" connectable="0" parent="hxzqd37WvZ4zt7qAIJqa-30">
          <mxGeometry x="-0.1963" y="1" relative="1" as="geometry">
            <mxPoint x="28" as="offset" />
          </mxGeometry>
        </mxCell>
        <mxCell id="hxzqd37WvZ4zt7qAIJqa-31" value="" style="endArrow=classic;startArrow=classic;html=1;rounded=0;" edge="1" parent="1">
          <mxGeometry width="50" height="50" relative="1" as="geometry">
            <mxPoint x="447" y="606" as="sourcePoint" />
            <mxPoint x="761" y="606" as="targetPoint" />
            <Array as="points" />
          </mxGeometry>
        </mxCell>
        <mxCell id="hxzqd37WvZ4zt7qAIJqa-32" value="Back End Services" style="edgeLabel;html=1;align=center;verticalAlign=middle;resizable=0;points=[];" vertex="1" connectable="0" parent="hxzqd37WvZ4zt7qAIJqa-31">
          <mxGeometry x="0.0653" y="-1" relative="1" as="geometry">
            <mxPoint as="offset" />
          </mxGeometry>
        </mxCell>
        <mxCell id="hxzqd37WvZ4zt7qAIJqa-45" style="edgeStyle=orthogonalEdgeStyle;rounded=0;orthogonalLoop=1;jettySize=auto;html=1;entryX=0;entryY=0.675;entryDx=0;entryDy=0;entryPerimeter=0;" edge="1" parent="1" source="hxzqd37WvZ4zt7qAIJqa-34" target="hxzqd37WvZ4zt7qAIJqa-35">
          <mxGeometry relative="1" as="geometry">
            <Array as="points">
              <mxPoint x="317" y="288" />
              <mxPoint x="317" y="288" />
            </Array>
          </mxGeometry>
        </mxCell>
        <mxCell id="hxzqd37WvZ4zt7qAIJqa-34" value="Azure&amp;nbsp;&lt;br&gt;Front Door" style="image;aspect=fixed;html=1;points=[];align=center;fontSize=12;image=img/lib/azure2/networking/Front_Doors.svg;" vertex="1" parent="1">
          <mxGeometry x="215" y="272" width="64" height="56.47" as="geometry" />
        </mxCell>
        <mxCell id="hxzqd37WvZ4zt7qAIJqa-35" value="" style="rounded=0;whiteSpace=wrap;html=1;labelBackgroundColor=#D4E1F5;fontColor=#A9C4EB;strokeColor=#D4E1F5;fillColor=#D4E1F5;" vertex="1" parent="1">
          <mxGeometry x="351" y="115" width="120" height="257" as="geometry" />
        </mxCell>
        <mxCell id="hxzqd37WvZ4zt7qAIJqa-36" value="" style="group;strokeColor=none;" vertex="1" connectable="0" parent="1">
          <mxGeometry x="430.15" y="414.5" width="323" height="137.5" as="geometry" />
        </mxCell>
        <mxCell id="hxzqd37WvZ4zt7qAIJqa-18" value="" style="rounded=0;whiteSpace=wrap;html=1;strokeColor=#A9C4EB;" vertex="1" parent="hxzqd37WvZ4zt7qAIJqa-36">
          <mxGeometry x="9.170347003154573" y="33.74542124542124" width="313.8296529968454" height="103.75457875457874" as="geometry" />
        </mxCell>
        <mxCell id="hxzqd37WvZ4zt7qAIJqa-7" value="" style="image;aspect=fixed;html=1;points=[];align=center;fontSize=12;image=img/lib/azure2/databases/SQL_Server_Registries.svg;" vertex="1" parent="hxzqd37WvZ4zt7qAIJqa-36">
          <mxGeometry x="236.391167192429" y="54.39560439560439" width="65.56495885067314" height="59.77981542267256" as="geometry" />
        </mxCell>
        <mxCell id="hxzqd37WvZ4zt7qAIJqa-13" value="&lt;meta charset=&quot;utf-8&quot;&gt;&lt;a style=&quot;color: rgb(0, 0, 0); font-family: Times; font-size: medium; font-style: normal; font-variant-ligatures: normal; font-variant-caps: normal; font-weight: 400; letter-spacing: normal; orphans: 2; text-align: start; text-indent: 0px; text-transform: none; widows: 2; word-spacing: 0px; -webkit-text-stroke-width: 0px; text-decoration-thickness: initial; text-decoration-style: initial; text-decoration-color: initial;&quot; data-slideid=&quot;&quot; data-shapeids=&quot;14&quot; data-sessionid=&quot;135cfc99-20db-a861-3329-4dbbd708112a&quot; class=&quot;CID9d757a0b-4681-4573-9d83-e3be9195a1c8&quot;&gt;&amp;nbsp;&lt;/a&gt;&lt;img style=&quot;color: rgb(0, 0, 0); font-family: Times; font-size: medium; font-style: normal; font-variant-ligatures: normal; font-variant-caps: normal; font-weight: 400; letter-spacing: normal; orphans: 2; text-align: start; text-indent: 0px; text-transform: none; widows: 2; word-spacing: 0px; -webkit-text-stroke-width: 0px; text-decoration-thickness: initial; text-decoration-style: initial; text-decoration-color: initial;&quot; class=&quot;CID9d757a0b-4681-4573-9d83-e3be9195a1c8&quot; data-from-ppt-online=&quot;true&quot; data-image-height-mu=&quot;2.32931726907631&quot; data-image-width-mu=&quot;2.34939759036145&quot; src=&quot;data:image/png;base64, iVBORw0KGgoAAAANSUhEUgAAAHUAAAB0CAYAAAC7WH0ZAAAAAXNSR0IArs4c6QAAAARnQU1BAACxjwv8YQUAAAAJcEhZcwAADsMAAA7DAcdvqGQAABTGSURBVHhe7Z0JfBzVfcffMTO7s7vaXR3W4UOyhGTJNrKNLxzMkcQ4TgqkIa1pAumHhiNHSfoJyaefj9Ok4UMOkrZJ2hwtTUggJIVC+STENJwOSTGHMbYwWPItS0iWtDp3tdprdo73+n+zs0Y2jg0GRofnaz3NzJs3s2/e7/3/75i3MvLw8PDw8PDw8PDw8PDw8PDw8PDw8PDw8PDw8PDw8PDw8PDw8PDw8PDw8PDw8PDweAfAznZWwletkrlcL+EJTBNqglrpAKsIMQvlVBPtf8iAh+dO0lnFjBUV1MCpFRdXUCtSq8qshnGrkjFcQTEpg7MhOK0izv3whBLmiHKMKFzE4NiCYxO2GuI4hzBPM4YSjKM4VtgwN9GARIPH8HnSMH7oIcv5uBnFjBGVo9uIvvzlxQqy1pjcWkYwasSIzOGIR+EpopCkBEKAEAkjXLTBMxiinQ7uYFmQkOc4xmmM+DjnOAlijzHEjmKO2xkhbXJjaM9MEXlai7obrZKXL69eT7B1FWL8EoxxJWS5FAo8iAkVlufg7LwZIU8JFMPxknB2QHDOwH4Ry8DBOOyOEYRe1BF6NGmW/LFq/0PpQsLpx7QUNbHskvogDlxHEboWY7IAhFJhC4cOYF2uIay5sAMfCyJzYdFoGKz4NxrHd5e8+uR+OOlihs7MtBH1f9Bm+uELEosoo5+jGF8LPhRcqsjetCovh0K+4F+OI7wVGufvDydy7fU9z2iF81PLtBA1u+TyWkkhn6SIfIFgEnXVEt8uYMngmnVoEu7KmOzH4Y6nDjpnpozXXdoUkWq9fIMqyf8uUfmvoVfqn56WeXpAV+h007UyQpv+oaYxRgfnHX4G9TDntOtMqajZ5Rs/oRLpp4TQFuiVOLEzFPAumJByyvmVF1UpWdoyb9czPVMj7JS5X61141/KhN4JndgK8F9O7CxAuGOOUrppfkXteOpHTqyrQC/dfUYvuHwxJXQLWOjsElQAFkswLpElemtu+ab3OrGuMiWihix0jUTIqhnVIXorQFMClbZe4ujjl6HLJCfWNVwXtWPJZdWESGugAYKjWSqqQFRYjFY+2MoXOzGu4bqoAUyqMOfVs9ZKJwHNazX8rnIOXcN1UYf0rG5ypL0+UzN7YRxrE9wynEPXcF3U9xzZ2ZNixqsF1zuLhYVHSzNr731Dxw45Ma4xFeNU83w1GG9Qgit8lM6dlW6YUJQzjNdeyI3fcXPf/j0Q42rtnQpRyW+TwyOLfGpPnaK2qFSumVXCQgcwY+ldT6ZHv3ZVV9sTECPcr6sP6LqosWUbA1ui50vru57tQpi218mKFCFSKyFkZvtiMekA4g3qucfuThy7/abefU8faL4IfXVei/S9oS5X21XXRb29+rylYRndekN1TXxz557dO7T4XoVLuxfIvjkqprUzsv8EmR43jPZtqdFvbhnY//OfjPXv2b3oPfOXBMJbFIyz3xo82uWkdAXXO0qDmi5ZnF2+gAceSS77wLUrQzVjNx7b+9jqjmc/dU+89/pBQ9umcyvFOLfsHrKt8nRR2skPBMYRMxnLjRr5HVvHBz93SfcLn/jz7rYH8hLviy/buGFlILIVM/Ix6Ou7Pvngemm1L7p0TZNf/ZmPSsvEzIvB2eNxPf+9Xwz1HdoS78xCksANkXlNn6ms29ToC7wvQEktRaQEap9KKCXHWye7HX43mypHQAcOeYXKmAMx0znOYr165tl7x2OPf2+oex+cnrilfIH/S2V1C+oCoVvg0usIpsRk5iC44xsWHNj+eOEu7jDlohZqPWNglltThv5gWzaz/4cjPbHfpWM6JFf/vnphyxWhygtrFX9rhMpNPkTLKMZhilEJxUQlBPaOAyIf1/nNCO5cam+KtxHLWCwOAuYhpEzEJ/IWS2aQdXTAyHb8fmJ811cHD8OQDKVaIxHp9mhD9dpwtKkG+z4Cj/IxTKhafC6TWeeGqHuaLlm7WA3cdVzUIjAM4JybUKCv6szalrGstqMo1fl5aI9eisczkMJXjtToJyqqGteHS8+bK/lqKyRa7UdSpY/QiMRRUCY0AA8UgI6CQjBWMMIy5pzCPuYYmhpwmY7sFsPctDjXweB1qFQ5C6GMCSHHWCrHjZGkYQ6OmHrvi3qq++74scMxTRuD6/Lr0Hz5a41z61eq4cYopstlTDZggtfBZ/lOeJ5zTdQWNfAzP5VaTyiEImJOGAoExJ3giB+wON6nM/NQkuuHD+ha19fGOrtfGBtLQUrRyZMh+CGUXRGpKF3hD0dqFF9JkBM1SCW/goifcEwlgokIJqhnYszAL1g6RfmsxbWUZWrDupZu11LJP0yMxydQPg73y0EQPVbQGQV+U3dh3ZqSQD2I2OQntJkgsgRKDnrstMyuItD8v4GCqEOOqI85sa7guqh7Wy5e1aQIUeUVpxS1iMiZLTAYmGUKAxvgHA/BdsiAfRCoW8esN2/m+zvz2tBv02MjMHQQggghBPYdnHAythROEOAbw/NLr62pntNE1Cq/5JsXQHSBjHA9pWg+WGEl3KQKUs/FlIqKBFdC3k83voZ8m5bZH8tnb6w99OyTTqwrnOqB31W+WVtb83eli35SIqlXIatY/mcCsmnnVGwhQGEybulQ2GkoaOhc8RycykMR50F4iOMJOJ+Bgs1yxnUG5QuGakG8cMESp0ihHKvglYOYM7FmOAw39sGtwYViFe4VgLRBRAjEwfi52CmzNTyNkJMhBOUsY+fuXPJTlx7eudeJdQXXRQVwe8vFn23xhe6QCIkUCuxsKAotOPkxhABitR/8QENdiHgdEE9cTOwKcqpri7yNvEGlsnr13B31B7Z/AyJcnXxwfZwK4NaDzz3Qk8/+EtocvVCwZ4OQrBiEK5wcCmII5QDRT4IO8+sBogvP/aeuLYazAZ6HwcWDhv7Q5u6X7oIYuKm7uD6jdBs89gi0e/842rN7c7QGRajUJBEaeoPBzDRE5YS6oltWsiefu29j147bO/L5GJwRop5lDTk7XC9K1vrB+RlmND7PM3s/uP9F87/rVlz5vnDZzaVEuUChErhjx1pmCo6YpmVkkxbb15ZL3rvp6EsP/HjJkvx18oLV0P3uU/c81emkdgXXLfUzFbUtYVn59kLiX3xRSbj9o917Xrw3ObB9XSAy7MccxigkKlEpYHvI6Syu8OLQNdYtlkyY+V0devr+v40d+M7XY4ef/H5FS8nNkdpbAgR9QWNmx3eGug87V7mC65Z6oPmy1fX+wM99RFpmMX17yrJ+sWbg5V93xuO5i0sq6r9YtuDiRb7gmhrZtzoiKa2USj7bg72ddu6doNipgq3FLCNt6YeHTWNXp5bddWei97n/HR8+tBly+NPl778iiOQboBP4Z4yjkWFd/5u5+58Wr+Bcw3VRCzNK6l0+qixDYJmcsTjjfKfGjQfuSnY+cmtPz0RtIFD1F4HKRSuD4fOaleDS+YpvRZQq4t3rXLtwbXHfZZEniSg+Km/po+PcPDSo6a8c0ic6DurZo48kxg61aYkBSEhHzn//hyJUvo4isp4QUiMuhXHqOTpN6BQe50zMIHXqnD16UM88eMGB54/ACUlFqOyqSE3lQp+/vF5RK5eqoeYayd9YRuQGlZBaP6aVmE76RlyRN6P3KZ4eKhgzGBuDdr8vyYzuQcs6sj+bOtijpWJdzIw/nRkdHixMGWrPNl1cuyoYuNqHyNVwqxboaJfbNxGVDZ7Lm/sVWYEfzriYPsqAwHtNjB7rzRtP3jywu/uZZFLIJF5j+ecgn9oQVAMRSvylWA6sC0aqapVg5RwqzwkTudxHSAjuH1QwD4j5X2idIRACN2Aw3DAhGCZnuSxjGYPxdAoZiVFDH+kx8sN7cslYv25mklZeG81ms11IF1OGIlgNqJQ/0Ly4eqkc2ihTcqWE8CpMeBhGhgqcP9FzeKKejMiWM3kgbJjzY7DzvMZZ27ilv/yqnuntyeSMvVqSvZJPmO2ZDBbTSvZFhbG3CMJ6xVbcrBiKaUQQHy6CmLgVW7ss1gQCeFGgArf6IrQ5FJBWyL6acuJfEcR0FeRoPSRqsse+dvriLU/BuSTqjqYLF68IRu/yE3k9Ym/h2/a2m7Z3oC5YQsNOMIwuE/MesLYB6C3HJgxjNIetlMkxRJlm3rSYhgnj2OQSxuACOPyWxOsUTMFl+4hJFaJQFUkhP5bmwPCjCtrEuZjjOviYBhCvmWASOi7cW2nDofduWFZnp56+acnB555xYl3BdVEBdfD8Df9SpfhvsV+E/amafiactrjwBK8LLqwfOl867GRAQw0RngcXbBZOgLPEnHIkXstxFVKLoZNPTDSdkA9bPAhvRcSTgWY+aeR//a+Dhz93+0jPoBPrCq6PUwFruRqK18v+5T5Jmve2Cq5Y8MeD8KIgmf19UaKCkywBa4tCKINQ7mxLCcZh2IKoWAJxhemfeJ+zrWhFxGS+YXTv0pJ33HDMXiLqKlMhKn44OTzSooZ762TfIp8kz8N2Qc4SwO1mTb1zW3Lstg917xbj0zf7Kuodw3VRh5ZcFtoSWSxf1P1cp5+j9gWKH8P4TiwRFZ2amQu4B6iabFDPbr0/3v/16/s7to2uXUu/FGmUvzvSI5bmuIbron5l7qIlYYV88abyeeMf6XnlpV16Yq/M8O4aWSkPUmlhsXWcUUCmk5bx8rbU2De+PnDonn+L9+1pX3rpwloU+jKcTH97uHt2LxEd03QJhgbvn68Etk4s/8D1S8Ph+Cf7Oh5dd+T5T98z2nftgKE/DgPVCdHdsTtDxQ7RtMDJj2OVBox1R8z8c79ODH368qNt13+4q+3B/jTvT5z/gQ8tkYKPIE4250xeWCnhIq6X1gmrCaFoLMvaNm6Y//zLkf59Xxw9KAb5vutLaxo/W1G3qckX3AjW20A4CkHnxg+jkNcr4TvRoTktQjxnCzCxvpBzDQZh2Ryz+nr03B/+KzHw2HeHuw/A6fRtVQ2+G8MLF9YE5FspwtdgyOs5s0T0VNOEHDGAP5o2+X1tWqbjR8Pdg79NDdhLRG+qWNB8TaTqwoW+wLJyojQrBJdLiIQoxiEJzotlZYU7C0DkE3Q+neiTHn2SeALGhIAsZ3GeAa+R1jFPJC2ts1fX2p9IJ3Z+O9bZAcnSl0UidEtpU9WqcKQpiuVrID9/Bb1uxa5w8FzejBIWf5WOW/DTbnDriZTJdh/juaOf79/X81wyOQEp/AGESj5aOrdhU6iyqcHnqy2VlJoAptVgwhGwjgCMTwIUwVDGXiIKAYYsULgwCBWTDjBGFSqLlSYcRrLQK4Vhsg6fWVwimjUQz+nMSmYtNpxgZmzQ1Hv/Lzt69FcTw53xXC4BechfVF6ufitSX7dUjSwMU+kCmeBNGJM1MDwCMSc/zzkm6pmXiBLh7jLI4vsRZnvzjB2a4FZnT17r/kG+r+f+3l5RwMJCRXsl5l2j6wPRsnWBaKRW8UVCVFZVKqk+hP3gtqlYJuonBFuYcZNhy+KWpXGWz1impmGW69f1iT1acvyJ5Ki4r1iRKLyEWFdkNaPykv84r6F2iRpcGMK+RrjPIoJ4KyJYLBGN2hMop3wOW9RzZIlo80Wrm3wlQtTlpyyMIiJnQmChnTBgzmNgZzFw1YMW4zET8deg1PvGmTkQ0/Wh3+fSo1/te9V+eyIudyg+3+TnLPrkyb5Z+XJlfemVZeVz5pGSylIizZUpnicjXAcWOA+svhoS14h9293bkxSQ99ONr4WolhmLafkbag8/M7vfpz7VcGHT+lDkpwFJee9bn/uFILZQmJxZBhymwbNmEOZZe0oQIw3EB1F5UiwVhZDjhOURE3/fF1QAFwx1RLhjBSMiVvMH4UYRe/YJOmjwASqkEUtEg7AfArcKxl74PPhl/zi/zgx8lG6Z+4/quZuWHNy+w4l1Bcix6yjDSzf8YI5P/cxbEvUNQNaP5/4UjyE0LCgBNaAQAwGMzU4rfjv7J187SbTTWeKZIBRNGPnf3D7a8envx2KjTqwrTOo5uoZ+MJ99NG/qPQX3erYU9CoE4QpPCoAQDpQTS0SLy0TFKzPntRlwymsn3fdsgU81THM8ZmQed1tQwVSISi7t3PGHPku73+Jm/o2WMtMpdK+HLO3hloMvPAwRrpfxVIgqzMhs3bf9x/aCbs6gbZwlwsJziJmwQT3/8K29h/8JYsQXud6GyZ8dU/GWRsBMGDL8cLS3bXO0xoxQ2ihROeScm4EIp06RwcxUt5791S3H9t6xNT38GpwQQ6NzRlSBsNj8nWO9bWuDkd5STEv8hC60v0T8dtozt7G/xQGDW1N7aVd6/Aerj+y484ieEy/FoWlxX1DBVIoqHlh0f40HErEjMV1rq1DkrhAmYR+V5tp/rWU6i2u/KcRowtT37ckm//Pn4313furYPvGVRTH7NWWCCqZLYyYqF/jfUOiqsmjD5kjFqrVq6RVVsvI+idBAoXimg8BQXNBuWpznxwxt56ta6pHfxcd2/i4xdLgLZYSY9iyUnXQKmU49FJEXsQRUCBy6IBSas0GtWHB1tGZ9k0/dECXySolgvyjVQqaLWX83xD7x3jDQBZAxbpn7XtO1px9Pj2x/NDncfTSTGBkuWGZRzOlQ86aVqEVEnoRvK371P1iiKKELfaHSWyoWrjzfF15dLsutQYzrYNgZgIR2WlCa2l84tSV/M4JPSgOKid/iD4pAvMExMiFKz1lGf4Kb7Ye0dNu9yf7df5yID4/rejqHkPgbFGI6Uogp+gYiTBumo6iTEYLZrtkJYvLePl4XjEY/XlbTsFQO1lfLcl2IyFUBSisVTMV/DRbAHEnQ5YLrxQwHyAQ7dhMtXtmAVTHxZXTMLTCvnGaZcY3xkSzSBwdNs7crn+t+KBk7+kRyVMwlC+GKQaw3Km7F3U5Xa6aM6S7qZGxhIAhRi6EoenG/eN7XHAyWrPZFg6WEyCVUkRROqIktlraYGbd0oz0/nn0lmxXjSGFxwnUWLU7sF4+L+yIUBZyWQk5mJol6MkWRBUVBRZi8LxDbyUJMPhbbYhAiTj4uBo9pRlHYk/lT8R4eHh4eHh4eHh4eHh4eHh4eHh4eHh4eHh4eHh4eHh4eHh4eHh4eHh4eHh4eHh4eHjYI/T/2cMgn5OZmIAAAAABJRU5ErkJggg==&quot;&gt;" style="text;whiteSpace=wrap;html=1;" vertex="1" parent="hxzqd37WvZ4zt7qAIJqa-36">
          <mxGeometry width="32.60567823343848" height="41.30036630036629" as="geometry" />
        </mxCell>
        <mxCell id="hxzqd37WvZ4zt7qAIJqa-5" value="" style="image;aspect=fixed;html=1;points=[];align=center;fontSize=12;image=img/lib/azure2/integration/SQL_Data_Warehouses.svg;" vertex="1" parent="hxzqd37WvZ4zt7qAIJqa-36">
          <mxGeometry x="133.4794952681388" y="51.37362637362637" width="61.70819656533942" height="62.672387136672846" as="geometry" />
        </mxCell>
        <mxCell id="hxzqd37WvZ4zt7qAIJqa-39" value="React " style="shape=image;verticalLabelPosition=bottom;labelBackgroundColor=none;verticalAlign=top;aspect=fixed;imageAspect=0;image=https://upload.wikimedia.org/wikipedia/commons/a/a7/React-icon.svg;" vertex="1" parent="1">
          <mxGeometry x="373" y="262" width="69.85" height="62" as="geometry" />
        </mxCell>
        <mxCell id="hxzqd37WvZ4zt7qAIJqa-3" value="API&amp;nbsp;&lt;br&gt;App Service" style="image;aspect=fixed;html=1;points=[];align=center;fontSize=12;image=img/lib/azure2/preview/Web_Environment.svg;labelBackgroundColor=none;" vertex="1" parent="1">
          <mxGeometry x="584.85" y="144.09" width="48.3" height="49.81" as="geometry" />
        </mxCell>
        <mxCell id="hxzqd37WvZ4zt7qAIJqa-43" value="FastAPI" style="shape=image;verticalLabelPosition=bottom;labelBackgroundColor=none;verticalAlign=top;aspect=fixed;imageAspect=0;image=https://miro.medium.com/v2/resize:fit:700/1*du7p50wS_fIsaC_lR18qsg.png;clipPath=inset(14.81% 69.33% 19.44% 6.67%);" vertex="1" parent="1">
          <mxGeometry x="558" y="227.46" width="106.5" height="105.01" as="geometry" />
        </mxCell>
        <mxCell id="hxzqd37WvZ4zt7qAIJqa-41" style="edgeStyle=orthogonalEdgeStyle;rounded=0;orthogonalLoop=1;jettySize=auto;html=1;" edge="1" parent="1">
          <mxGeometry relative="1" as="geometry">
            <mxPoint x="475" y="293" as="sourcePoint" />
            <mxPoint x="545" y="293" as="targetPoint" />
          </mxGeometry>
        </mxCell>
        <mxCell id="hxzqd37WvZ4zt7qAIJqa-50" value="" style="endArrow=classic;startArrow=classic;html=1;rounded=0;entryX=0.5;entryY=1;entryDx=0;entryDy=0;" edge="1" parent="1" target="hxzqd37WvZ4zt7qAIJqa-54">
          <mxGeometry width="50" height="50" relative="1" as="geometry">
            <mxPoint x="604" y="445" as="sourcePoint" />
            <mxPoint x="609.5" y="376" as="targetPoint" />
          </mxGeometry>
        </mxCell>
        <mxCell id="hxzqd37WvZ4zt7qAIJqa-55" value="Front-End&lt;br&gt;App Service" style="image;aspect=fixed;html=1;points=[];align=center;fontSize=12;image=img/lib/azure2/preview/Web_Environment.svg;labelBackgroundColor=none;" vertex="1" parent="1">
          <mxGeometry x="383.77" y="144.09" width="48.3" height="49.81" as="geometry" />
        </mxCell>
        <mxCell id="hxzqd37WvZ4zt7qAIJqa-57" value="Users" style="image;aspect=fixed;html=1;points=[];align=center;fontSize=12;image=img/lib/azure2/identity/Users.svg;labelBackgroundColor=none;" vertex="1" parent="1">
          <mxGeometry x="-99" y="292.28" width="53" height="57.97" as="geometry" />
        </mxCell>
        <mxCell id="hxzqd37WvZ4zt7qAIJqa-62" value="" style="verticalLabelPosition=bottom;html=1;verticalAlign=top;align=center;strokeColor=none;fillColor=#00BEF2;shape=mxgraph.azure.user;" vertex="1" parent="1">
          <mxGeometry x="-125" y="200" width="33" height="39" as="geometry" />
        </mxCell>
        <mxCell id="hxzqd37WvZ4zt7qAIJqa-64" value="" style="verticalLabelPosition=bottom;html=1;verticalAlign=top;align=center;strokeColor=none;fillColor=#00BEF2;shape=mxgraph.azure.user;" vertex="1" parent="1">
          <mxGeometry x="-51" y="196" width="41.5" height="43" as="geometry" />
        </mxCell>
        <mxCell id="hxzqd37WvZ4zt7qAIJqa-63" value="User Groups" style="verticalLabelPosition=bottom;html=1;verticalAlign=top;align=center;strokeColor=none;fillColor=#00BEF2;shape=mxgraph.azure.user;" vertex="1" parent="1">
          <mxGeometry x="-88.5" y="203" width="37.5" height="44.46" as="geometry" />
        </mxCell>
      </root>
    </mxGraphModel>
  </diagram>
</mxfile>
